<svg
  xmlns="http://www.w3.org/2000/svg"
  width="256"
  height="256"
  viewBox="0 0 256 256"
>
  <!-- Circle -->
  <circle
    cx="128"
    cy="128"
    r="118"
    fill="#0F172A"
    stroke="#3B82F6"
    stroke-width="4"
  />

  <!-- Grid -->

  <!-- Row 1 -->
  <rect x="58" y="66" width="38" height="38" rx="8" fill="#9CA3AF"/>
  <rect x="109" y="66" width="38" height="38" rx="8" fill="#60A5FA"/>
  <rect x="160" y="66" width="38" height="38" rx="8" fill="#64748B"/>

  <!-- Row 2 -->
  <rect x="58" y="117" width="38" height="38" rx="8" fill="#2DD4BF"/>
  <rect x="109" y="117" width="38" height="38" rx="8" fill="#22C55E"/>
  <rect x="160" y="117" width="38" height="38" rx="8" fill="#60A5FA"/>

  <!-- Row 3 -->
  <rect x="58" y="168" width="38" height="38" rx="8" fill="#94A3B8"/>
  <rect x="109" y="168" width="38" height="38" rx="8" fill="#F8FAFC"/>
  <rect x="160" y="168" width="38" height="38" rx="8" fill="#64748B"/>

  <!-- Sparkle -->
  <g transform="translate(184 54)">
    <path
      d="M20 0
         L26 14
         L40 20
         L26 26
         L20 40
         L14 26
         L0 20
         L14 14
         Z"
      fill="#FFD54A"
    />
  </g>
</svg>
